<?xml version="1.0" encoding="UTF-8" standalone="no"?>
<!-- Created with Inkscape (http://www.inkscape.org/) -->

<svg
   width="217.5408mm"
   height="47.699406mm"
   viewBox="0 0 217.5408 47.699406"
   version="1.1"
   id="svg1"
   xmlns="http://www.w3.org/2000/svg"
   xmlns:svg="http://www.w3.org/2000/svg">
  <defs
     id="defs1" />
  <g
     id="layer1"
     transform="translate(-17.445538,-73.436134)">
    <path
       id="text8"
       style="font-weight:bold;font-size:50.8px;font-family:Arial;-inkscape-font-specification:'Arial Bold';fill:#ffcc00;fill-opacity:1;stroke-width:0.264583"
       d="m 42.870338,73.436134 c -4.911321,0 -9.276948,1.00872 -13.09687,3.02617 -3.819922,2.00091 -6.829557,5.01055 -9.028907,9.02891 -2.199348,4.00182 -3.299023,8.32611 -3.299023,12.97285 0,4.233326 0.967383,8.152456 2.902148,11.757416 0.06559,0.12165 0.132575,0.24209 0.200505,0.36173 l 3.394108,-3.39411 c -1.321424,-2.55578 -1.982308,-5.34827 -1.982308,-8.377776 0,-3.58841 0.785482,-7.03626 2.356445,-10.34355 1.5875,-3.32383 3.935678,-5.89525 7.044532,-7.71426 3.12539,-1.83554 6.928779,-2.75332 11.41016,-2.75332 3.36884,0 6.26219,0.55993 8.68009,1.67949 1.4e-4,6e-5 3.7e-4,-7e-5 5.1e-4,0 l 3.36879,-3.36931 c -0.27331,-0.15324 -0.55246,-0.30077 -0.83768,-0.44338 -3.24114,-1.62057 -6.94531,-2.43086 -11.1125,-2.43086 z m 18.60455,9.48263 -3.29385,3.29385 c 0.88889,1.83098 1.33325,3.86441 1.33325,6.09989 0,2.26548 -0.5209,4.45657 -1.5627,6.57323 -1.04179,2.116666 -2.40605,3.803386 -4.09277,5.060156 -1.25677,0.95911 -2.28203,1.43867 -3.07578,1.43867 -0.26459,0 -0.4961,-0.0992 -0.69453,-0.29765 -0.1819,-0.21498 -0.27285,-0.52917 -0.27285,-0.94258 0,-0.33073 0.11576,-1.05834 0.34726,-2.18281 l 2.06241,-9.793196 -8.23412,8.234116 c -0.53648,1.36924 -1.1498,2.45119 -1.8402,3.24579 -0.61185,0.71108 -1.23197,1.23197 -1.860353,1.5627 -0.549139,0.30752 -1.123727,0.51271 -1.723926,0.61598 l -4.403865,4.40387 c 0.684705,0.14249 1.404338,0.21394 2.159041,0.21394 2.546615,0 4.795573,-0.94258 6.746873,-2.82774 0.23152,0.92605 0.69454,1.62885 1.38906,2.1084 0.69454,0.47956 1.72806,0.71934 3.10059,0.71934 5.09323,0 9.26868,-2.14974 12.52637,-6.44922 2.59622,-3.40651 3.89433,-7.218166 3.89433,-11.434956 0,-3.48675 -0.83466,-6.70085 -2.50424,-9.64178 z m -21.258647,0.63768 c -4.134115,0 -7.524088,1.9513 -10.169922,5.85391 -2.182812,3.20807 -3.274219,6.75514 -3.274219,10.641206 0,1.38155 0.174456,2.64302 0.522966,3.78478 l 6.047176,-6.047176 c 2.5e-5,-1.8e-4 -2.5e-5,-3.4e-4 0,-5.2e-4 0.146692,-1.05553 0.404179,-2.19445 0.772046,-3.41736 0.611849,-2.03398 1.521354,-3.59667 2.728516,-4.68808 1.207161,-1.10794 2.521809,-1.66191 3.943944,-1.66191 0.69841,0 1.33233,0.14053 1.90169,0.42168 l 2.92282,-2.92282 c -1.35057,-1.30932 -3.1491,-1.96371 -5.395017,-1.96371 z m 19.794137,26.416986 c -1.73632,2.19935 -4.02662,3.84473 -6.87089,4.93613 -2.84427,1.10795 -6.24252,1.66192 -10.19473,1.66192 -4.101045,0 -7.747332,-0.66146 -10.938869,-1.98438 -0.517969,-0.21312 -1.017023,-0.44727 -1.497583,-0.70176 l -3.378088,3.37808 c 0.657074,0.39377 1.347803,0.75871 2.072742,1.09399 3.968749,1.85209 8.681642,2.77813 14.138668,2.77813 5.63894,0 10.41797,-1.09141 14.33711,-3.27422 3.42305,-1.90169 5.9614,-4.53099 7.61504,-7.88789 z" />
    <rect
       style="fill:#999999;fill-opacity:1;stroke-width:0.209073"
       id="rect8"
       width="9.4164515"
       height="5.4717226"
       x="53.957653"
       y="-100.00649"
       transform="rotate(135)" />
    <rect
       style="fill:#00ff00;fill-opacity:1;stroke-width:0.209073"
       id="rect8-8"
       width="9.4164515"
       height="5.4717226"
       x="40.812206"
       y="-100.05444"
       transform="rotate(135)" />
    <rect
       style="fill:#ff0000;fill-opacity:1;stroke-width:0.209073"
       id="rect10"
       width="9.4164515"
       height="5.4717226"
       x="27.886007"
       y="-100.01839"
       transform="rotate(135)" />
    <rect
       style="fill:#0000ff;fill-opacity:1;stroke-width:0.209073"
       id="rect11"
       width="9.4164515"
       height="5.4717226"
       x="14.740564"
       y="-100.06633"
       transform="rotate(135)" />
    <text
       xml:space="preserve"
       style="font-style:normal;font-variant:normal;font-weight:bold;font-stretch:normal;font-size:37.0658px;font-family:Arial;-inkscape-font-specification:'Arial Bold';text-align:start;writing-mode:lr-tb;direction:ltr;text-anchor:start;fill:#ffcc00;fill-opacity:1;stroke-width:0.386102"
       x="82.974495"
       y="95.248871"
       id="text11"
       transform="scale(0.8568644,1.1670458)"><tspan
         id="tspan11"
         style="font-size:37.0658px;fill:#ffcc00;stroke-width:0.386102"
         x="82.974495"
         y="95.248871">Meta Fastq</tspan></text>
  </g>
</svg>
